<?xml version="1.0" encoding="utf-8"?>
<!-- Generator: Adobe Illustrator 24.0.3, SVG Export Plug-In . SVG Version: 6.00 Build 0)  -->
<svg version="1.1" id="skeme-logo" xmlns="http://www.w3.org/2000/svg" xmlns:xlink="http://www.w3.org/1999/xlink" x="0px" y="0px"
	 width="269px" height="269px" viewBox="0 0 269 269" style="enable-background:new 0 0 269 269;" xml:space="preserve">
<g id="logo-main">
	<path id="logo-box" d="M196.6,247L22.9,224.3c-2.8-0.4-4.8-2.9-4.4-5.7L44,23.3c0.4-2.8,2.9-4.8,5.7-4.4l195.2,25.5
		c2.8,0.4,4.8,2.9,4.4,5.7l-19.2,147.3c-0.4,3,1.9,5.6,5,5.6H264c2.8,0,5-2.2,5-5V5c0-2.8-2.2-5-5-5H5C2.2,0,0,2.2,0,5v259
		c0,2.8,2.2,5,5,5h191c2.8,0,5-2.2,5-5v-12.1C201,249.4,199.1,247.3,196.6,247z"/>
	<path id="text-s" d="M196.2,165.6c0,15.6-5.4,27.4-16.2,35.6c-10.8,8.2-27,12.2-48.6,12.2c-11.1,0-20.5-0.7-28.3-2.2
		c-6.6-1.3-12.8-3-18.6-5.3c-1.9-0.7-3.2-2.6-3.2-4.7V178c0-3.6,3.6-6,6.9-4.7c5.9,2.3,12.2,4.4,19.1,6.1c9.6,2.4,18.1,3.7,25.5,3.7
		c15,0,22.6-4.3,22.6-13c0-3.3-1-5.9-3-7.9c-2-2-5.4-4.3-10.3-6.9c-4.9-2.6-11.4-5.6-19.6-9c-11.7-4.9-20.3-9.4-25.7-13.6
		c-5.5-4.2-9.5-8.9-12-14.3c-2.5-5.4-3.7-12-3.7-19.9c0-13.5,5.2-23.9,15.7-31.3c10.5-7.4,25.3-11.1,44.5-11.1
		c16.7,0,32.9,3.3,48.8,9.9c2.6,1.1,3.8,4,2.7,6.6L184,93.1c-1.1,2.5-4,3.7-6.5,2.7c-5.9-2.4-11.5-4.4-16.7-6.1
		c-6.6-2.1-13.4-3.1-20.2-3.1c-12.2,0-18.3,3.3-18.3,9.9c0,3.7,2,6.9,5.9,9.6c3.9,2.7,12.6,6.7,25.9,12.1
		c11.9,4.8,20.6,9.3,26.1,13.5c5.5,4.2,9.6,9,12.2,14.4C194.9,151.6,196.2,158,196.2,165.6z"/>
</g>
</svg>
