<?xml version="1.0" encoding="utf-8"?>
<!-- Generator: Adobe Illustrator 24.0.3, SVG Export Plug-In . SVG Version: 6.00 Build 0)  -->
<svg version="1.1" id="skeme-logo" xmlns="http://www.w3.org/2000/svg" xmlns:xlink="http://www.w3.org/1999/xlink" x="0px" y="0px"
	 width="967px" height="269px" viewBox="0 0 967 269" style="enable-background:new 0 0 967 269;" xml:space="preserve">
<g id="logo-main">
	<path id="logo-box" d="M196.6,247L22.9,224.3c-2.8-0.4-4.8-2.9-4.4-5.7L44,23.3c0.4-2.8,2.9-4.8,5.7-4.4l195.2,25.5
		c2.8,0.4,4.8,2.9,4.4,5.7l-19.2,147.3c-0.4,3,1.9,5.6,5,5.6H264c2.8,0,5-2.2,5-5V5c0-2.8-2.2-5-5-5H5C2.2,0,0,2.2,0,5v259
		c0,2.8,2.2,5,5,5h191c2.8,0,5-2.2,5-5v-12.1C201,249.4,199.1,247.3,196.6,247z"/>
	<path id="text-s" d="M196.2,165.6c0,15.6-5.4,27.4-16.2,35.6c-10.8,8.2-27,12.2-48.6,12.2c-11.1,0-20.5-0.7-28.3-2.2
		c-6.6-1.3-12.8-3-18.6-5.3c-1.9-0.7-3.2-2.6-3.2-4.7V178c0-3.6,3.6-6,6.9-4.7c5.9,2.3,12.2,4.4,19.1,6.1c9.6,2.4,18.1,3.7,25.5,3.7
		c15,0,22.6-4.3,22.6-13c0-3.3-1-5.9-3-7.9c-2-2-5.4-4.3-10.3-6.9c-4.9-2.6-11.4-5.6-19.6-9c-11.7-4.9-20.3-9.4-25.7-13.6
		c-5.5-4.2-9.5-8.9-12-14.3c-2.5-5.4-3.7-12-3.7-19.9c0-13.5,5.2-23.9,15.7-31.3c10.5-7.4,25.3-11.1,44.5-11.1
		c16.7,0,32.9,3.3,48.8,9.9c2.6,1.1,3.8,4,2.7,6.6L184,93.1c-1.1,2.5-4,3.7-6.5,2.7c-5.9-2.4-11.5-4.4-16.7-6.1
		c-6.6-2.1-13.4-3.1-20.2-3.1c-12.2,0-18.3,3.3-18.3,9.9c0,3.7,2,6.9,5.9,9.6c3.9,2.7,12.6,6.7,25.9,12.1
		c11.9,4.8,20.6,9.3,26.1,13.5c5.5,4.2,9.6,9,12.2,14.4C194.9,151.6,196.2,158,196.2,165.6z"/>
</g>
<g id="logo-aux">
	<path id="text-k" d="M265.8,128.1h0.5l17.9-22.9c0.1-0.1,0.2-0.2,0.3-0.3l40.9-44.4c0.9-1,2.3-1.6,3.7-1.6h33.2
		c4.3,0,6.6,5.2,3.7,8.4l-49.9,54.5c-1.6,1.8-1.8,4.4-0.3,6.4l55.6,74.7c2.5,3.3,0.1,8-4,8h-35.3c-1.6,0-3.1-0.8-4.1-2.1l-39.2-55.1
		c-1.7-2.3-5-2.8-7.2-1l-13.7,11"/>
	<path id="text-e1" d="M467.8,213.4c-24.5,0-43.6-6.7-57.3-20.2c-13.8-13.5-20.7-32.6-20.7-57.3c0-25.5,6.4-45.1,19.1-59
		c12.7-13.9,30.3-20.9,52.8-20.9c21.5,0,38.2,6.1,50.1,18.3s17.9,29.1,17.9,50.7V140c0,2.8-2.2,5-5,5h-87.5c-3,0-5.4,2.6-5,5.6
		c1.2,9.1,4.5,16.5,10,22c6.5,6.6,15.7,9.9,27.4,9.9c9.1,0,17.8-1,25.9-2.9c6-1.4,12.2-3.4,18.6-6c3.3-1.4,6.9,1.1,6.9,4.6v21.2
		c0,2-1.2,3.8-3,4.6c-6.4,2.9-13.1,5.1-20.3,6.7C489.8,212.5,479.7,213.4,467.8,213.4z M462,85.4c-8.8,0-15.7,2.8-20.7,8.4
		c-4,4.4-6.6,10.4-7.9,17.8c-0.5,3.1,1.8,5.9,4.9,5.9l47.2,0c3,0,5.3-2.7,5-5.7c-0.9-7.5-3.5-13.5-7.6-18
		C477.8,88.2,470.8,85.4,462,85.4z"/>
	<path id="text-m" d="M694.5,210.7H663c-2.8,0-5-2.2-5-5v-83.7c0-11-1.8-19.2-5.5-24.7c-3.7-5.5-9.4-8.2-17.3-8.2
		c-10.6,0-18.3,3.9-23.1,11.7c-4.8,7.8-7.2,20.6-7.2,38.4v66.5c0,2.8-2.2,5-5,5h-31.4c-2.8,0-5-2.2-5-5V63.8c0-2.8,2.2-5,5-5h22.9
		c2.2,0,4.2,1.5,4.8,3.6l4.2,14.5c0.2,0.8,0.9,1.3,1.7,1.3l0,0c0.6,0,1.2-0.3,1.5-0.8c4.1-6.6,9.8-11.7,17.2-15.5
		c7.7-3.9,16.5-5.9,26.5-5.9c22.3,0,37.5,7.1,45.7,21.4c0.3,0.5,0.9,0.9,1.5,0.9h1.7c0.6,0,1.2-0.3,1.5-0.9
		c4.1-6.7,9.9-11.8,17.5-15.6c7.9-3.9,16.9-5.8,26.8-5.8c17.2,0,30.2,4.4,39.1,13.2c8.8,8.8,13.2,23,13.2,42.5v94c0,2.8-2.2,5-5,5
		h-31.6c-2.8,0-5-2.2-5-5v-83.7c0-11-1.8-19.2-5.5-24.7c-3.7-5.5-9.4-8.2-17.3-8.2c-10.1,0-17.7,3.6-22.8,10.9
		c-5,7.2-7.5,18.7-7.5,34.5v71.2C699.5,208.4,697.2,210.7,694.5,210.7z"/>
	<path id="text-e2" d="M905.4,213.4c-24.5,0-43.6-6.7-57.3-20.2c-13.8-13.5-20.7-32.6-20.7-57.3c0-25.5,6.4-45.1,19.1-59
		c12.7-13.9,30.3-20.9,52.8-20.9c21.5,0,38.2,6.1,50.1,18.3s17.9,29.1,17.9,50.7v15c0,2.8-2.3,5.1-5.1,5.1h-87.4c-3,0-5.4,2.6-5,5.7
		c1.2,9.1,4.5,16.4,10,21.9c6.5,6.6,15.7,9.9,27.4,9.9c9.1,0,17.8-1,25.9-2.9c6-1.4,12.2-3.4,18.5-6c3.3-1.4,7,1.1,7,4.7v21.1
		c0,2-1.2,3.8-3,4.6c-6.4,2.9-13.1,5.1-20.2,6.7C927.4,212.5,917.3,213.4,905.4,213.4z M899.6,85.4c-8.8,0-15.7,2.8-20.7,8.4
		c-4,4.4-6.6,10.4-7.9,17.7c-0.5,3.1,1.8,6,5,6h47c3.1,0,5.4-2.7,5-5.8c-0.9-7.5-3.5-13.5-7.6-17.9
		C915.4,88.2,908.4,85.4,899.6,85.4z"/>
</g>
</svg>
